<?xml version="1.0" encoding="UTF-8" standalone="no"?>
<svg
   viewBox="0 0 24 24"
   enable-background="new 0 0 24 24"
   version="1.1"
   id="svg1"
   sodipodi:docname="motorbike.svg"
   width="24"
   height="24"
   inkscape:version="1.3.2 (091e20e, 2023-11-25)"
   xmlns:inkscape="http://www.inkscape.org/namespaces/inkscape"
   xmlns:sodipodi="http://sodipodi.sourceforge.net/DTD/sodipodi-0.dtd"
   xmlns="http://www.w3.org/2000/svg"
   xmlns:svg="http://www.w3.org/2000/svg">
  <defs
     id="defs1" />
  <sodipodi:namedview
     id="namedview1"
     pagecolor="#ffffff"
     bordercolor="#000000"
     borderopacity="0.25"
     inkscape:showpageshadow="2"
     inkscape:pageopacity="0.0"
     inkscape:pagecheckerboard="0"
     inkscape:deskcolor="#d1d1d1"
     inkscape:zoom="20.270395"
     inkscape:cx="11.987926"
     inkscape:cy="11.96326"
     inkscape:window-width="1392"
     inkscape:window-height="1052"
     inkscape:window-x="0"
     inkscape:window-y="0"
     inkscape:window-maximized="0"
     inkscape:current-layer="svg1">
    <inkscape:page
       x="0"
       y="0"
       width="24"
       height="24"
       id="page1"
       margin="1.0813954 0 0.94186044"
       bleed="0" />
  </sodipodi:namedview>
  <path
     d="m 12.861832,5.0191061 c -0.823,-0.017 -0.81325,1.10775 -0.03125,1.21875 0.583541,0.08272 1.916818,0.298387 2.21875,0.34375 -3.17e-4,0.0099 0,0.02131 0,0.03125 -4.031,0 -5.999999,3 -5.999999,3 0,0 0.0395,-0.5615 -0.9375,-0.5625 -2.9,0 -4.28175,-1.116 -4.34375,0.625 -2.768,0 -3.51499997,1.6547499 -2.99999996,2.2187499 0.1223007,0 0.2264511,-0.0024 0.34374996,0 -0.65903779,0.71311 -1.06249997,1.671266 -1.06249997,2.71875 0,2.209 1.79099997,4 3.99999997,4 1.9538363,0 3.5564871,-1.39778 3.90625,-3.25 h 0.15625 c 0.4432492,0.15743 0.9514865,0.25 1.5625,0.25 h 2.999999 c 0.914,0 2.1915,-0.33175 2.5625,-1.96875 l 0.8125,-4.3437499 1.375,2.3124999 c -0.839992,0.733285 -1.375,1.79749 -1.375,3 0,2.209 1.791,4 4,4 2.209,0 4,-1.791 4,-4 0,-2.209 -1.791,-4 -4,-4 -0.461239,0 -0.900207,0.106333 -1.3125,0.25 l -1.625,-2.7812499 c 0.131993,0.01333 0.268001,0.03125 0.40625,0.03125 1.266,0 1.28125,10e-4 1.28125,-1.5 0,-1.4990001 -0.02625,-1.5000001 -1.28125,-1.5000001 -0.906501,0 -1.698278,0.305149 -2.125,0.75 -0.30829,-0.114084 -2.252516,-0.838194 -2.53125,-0.8437499 z m 7.1875,7.0937499 c 1.378,0 2.5,1.122 2.5,2.5 0,1.378 -1.122,2.5 -2.5,2.5 -1.378,0 -2.5,-1.122 -2.5,-2.5 0,-0.64766 0.250461,-1.242852 0.65625,-1.6875 l 1.1875,2.0625 a 0.75583666,0.75583666 0 1 0 1.3125,-0.75 l -1.1875,-2.0625 c 0.171917,-0.03754 0.348279,-0.0625 0.53125,-0.0625 z m -16.531249,0.0625 c 0.010006,0.0022 0.021308,-0.0022 0.03125,0 0.4794933,0.108226 0.8757927,0.260125 1.21875,0.40625 l -1.15625,1.375 a 0.75405803,0.75405803 0 0 0 0.1875,1.375 0.7564824,0.7564824 0 0 0 0.28125,0.03125 h 2.34375 c -0.3216307,1.009377 -1.2607355,1.75 -2.375,1.75 -1.378,0 -2.5,-1.122 -2.5,-2.5 0,-1.195029 0.8459183,-2.192345 1.96875,-2.4375 z m 2.53125,1.1875 c 0.1574092,0.151352 0.2627853,0.318437 0.34375,0.4375 0.025411,0.03737 0.011942,0.02997 0.03125,0.0625 h -0.78125 z"
     id="path1"
     style="fill:#ffffff" />
</svg>
